<svg width="50" height="50" viewBox="0 0 50 50" fill="none" xmlns="http://www.w3.org/2000/svg">
<rect x="0.5" y="0.5" width="49" height="49" rx="9.5" fill="black" fill-opacity="0.01"/>
<rect x="0.5" y="0.5" width="49" height="49" rx="9.5" stroke="white"/>
<path d="M15 5.5H35C40.2467 5.5 44.5 9.7533 44.5 15V35C44.5 40.2467 40.2467 44.5 35 44.5H15C9.7533 44.5 5.5 40.2467 5.5 35V15C5.5 9.7533 9.7533 5.5 15 5.5Z" stroke="white"/>
<path d="M13.125 30H11.2969L15.3594 18.6875H17.3438L21.4219 30H19.5938L18.5625 27.0156H14.1562L13.125 30ZM14.6562 25.5781H18.0625L16.3906 20.75H16.3125L14.6562 25.5781ZM22.8594 30V18.6875H24.5781V28.5156H29.6875V30H22.8594ZM31.4531 30V18.6875H33.1719V28.5156H38.2812V30H31.4531Z" fill="white"/>
</svg>
